<svg id="a" xmlns="http://www.w3.org/2000/svg" width="640" height="640"><path d="M354,632c135,0,272-60,272-201,0-41-12-67-24-83,9-12,15-43,15-67,0-80-71-154-183-176C413,55,305,8,246,8c-36,0-60,16-60,44,0,13,8,33,17,50-51-7-89-12-117-12-43,0-68,18-68,51,0,23,16,49,53,85-40,63-57,126-57,176,0,172,209,230,340,230Z" fill="#fff"/><path d="M430,337c-110,0-215-57-296-137-23-23-43-46-36-55,8-11,59,1,84,3,41,3,78-14,78-53,0-14-5-27,14-27,20,0,52,15,85,39-1,0-2,2-3,3-3,9,2,19,13,22,82,22,192,60,192,130,0,53-62,75-131,75Zm-75,104c-34,0-60-27-60-58,0-15,6-30,13-38,8,5,20,10,27,12-5,5-9,15-9,23,0,16,13,29,30,29s29-15,29-29c0-6-2-13-4-17,12,2,22,2,32,1,1,3,2,12,2,18,0,33-27,59-60,59Zm-6,129c-125,0-273-56-273-181,0-38,14-100,48-158,17,143,100,245,208,245,57,0,89-30,100-68,19,26,52,49,75,54,19-11,39-47,45-85,5,1,10,1,15,0,3,10,6,32,6,49,0,112-129,144-224,144Zm6,35c127,0,242-66,242-163,0-23-6-56-12-70,7-4,10-9,10-13s-2-6-5-6c-1,0-3,0-5,1-11,6-25,6-33,4,0-7-1-14-2-20,4,3,10,5,16,5,12,0,23-10,23-23,0-6-2-12-6-16,4-8,7-18,7-30,0-73-69-131-184-162-4-27-101-77-153-77-17,0-30,6-31,21s11,26,11,43c0,18-14,25-47,25-23,0-38-4-64-7-28-4-74-10-74,21,0,19,19,45,56,78-41,68-61,136-61,183,0,147,191,206,312,206Z"/></svg>