<svg xmlns="http://www.w3.org/2000/svg" width="800" height="800"><path d="M448.44,398.47c18.98,15.08,66.93,36.2,100.89,44.24,0,46.25-47.95,72.4-86.91,54.3-39.96-19.1-41.96-72.4-13.99-98.54Zm46.95-155.85c76.92,48.26,176.81,122.67,144.85,144.79-27.97,20.11-149.84-14.08-230.76-42.23-73.92-26.14-139.85-55.3-178.81-81.45-15.98-11.06-23.97-18.1-20.98-23.13,7.99-11.06,80.91,11.06,103.89-17.09,18.98-24.13-13.99-63.35-5.99-72.4,3-3.02,9.99-2.01,28.97,6.03,36.96,16.09,97.9,47.26,158.83,85.47ZM93.82,529.19c0-55.3,41.96-159.88,92.9-232.27,58.94,57.31,156.84,126.69,223.76,157.86,1,22.12,17.98,47.26,40.96,59.32,26.97,14.08,62.93,11.06,83.91-6.03,95.9,29.16,159.83,62.34,159.83,94.52,0,39.21-98.9,73.4-214.77,73.4-127.87,0-287.7-41.23-356.62-92.51-20.98-16.09-29.97-29.16-29.97-54.3Z" fill="#a2b"/><path d="M698.18,413.56c2-6.03,3-15.08,3-22.12,0-49.27-56.94-112.62-179.81-187.02-52.94-32.18-134.86-75.41-203.79-101.56-45.95-17.09-81.91-26.14-95.9-14.08-10.99,10.06-1,28.15,16.98,51.28,9.99,13.07,26.97,34.19,13.99,44.24-11.99,9.05-58.94,6.03-142.85-26.14-17.98-7.04-35.96-9.05-43.95,0-15.98,18.1,17.98,71.39,75.92,126.69-45.95,63.35-97.9,188.03-97.9,253.39,0,39.21,17.98,64.35,43.95,84.46,66.93,52.29,233.75,100.55,377.6,100.55s273.71-51.28,273.71-117.64c0-10.06-3-22.12-5.99-31.17,22.98-54.3,7.99-124.68-34.96-160.88Zm21.98,188.03c0,57.31-114.88,101.56-248.74,101.56s-310.67-46.25-373.61-96.53c-22.98-18.1-32.97-38.21-32.97-66.36,0-60.33,47.95-173.95,107.89-258.42-54.94-51.28-93.9-98.54-84.91-105.58,3-5.03,15.98-1.01,38.96,7.04,68.93,23.13,128.86,32.18,144.85,17.09,13.99-13.07,4.99-45.25-20.98-76.42-6.99-8.04-11.99-16.09-5.99-19.1,18.98-9.05,153.84,46.25,266.72,114.63,98.9,60.33,169.82,126.69,169.82,171.94,0,29.16-29.97,28.15-29.97,35.19,0,6.03,18.98,4.02,30.97-1.01,41.96,32.18,54.94,97.53,29.97,149.82,4.99,6.03,7.99,17.09,7.99,26.14Z" fill="#637"/><circle cx="489.4" cy="442.72" r="32" fill="#012"/></svg>