
<svg xmlns="http://www.w3.org/2000/svg" width="720" height="720"><path d="M470,377c69,0,131-22,131-75,0-70-110-108-192-130-11-3-16-13-13-22,1-1,2-3,3-3-33-24-65-39-85-39s-14,13-14,27c0,39-37,56-78,53-25-2-76-14-84-3-7,9,13,32,36,55,81,80,186,137,296,137Zm137,40c-5,1-10,1-15,0-6,38-26,74-45,85-23-5-56-28-75-54-11,38-43,68-100,68-108,0-191-102-208-245-34,58-48,120-48,158,0,125,148,181,273,181,95,0,224-32,224-144,0-17-3-39-6-49Zm-259-32c-7,8-13,23-13,38,0,31,26,58,60,58s60-26,60-59c0-6-1-15-2-18-10,1-20,1-32-1,2,4,4,11,4,17,0,14-12,29-29,29s-30-13-30-29c0-8,4-18,9-23-7-2-19-7-27-12Z" fill="#a2b"/><path d="M642,388c9-12,15-43,15-67,0-80-71-154-183-176-21-50-129-97-188-97-36,0-60,16-60,44,0,13,8,33,17,50-51-7-89-12-117-12-43,0-68,18-68,51,0,23,16,49,53,85-40,63-57,126-57,176,0,172,209,230,340,230s272-60,272-201c0-41-12-67-24-83Zm-247,257c-121,0-312-59-312-206,0-47,20-115,61-183-37-33-56-59-56-78,0-31,46-25,74-21,26,3,41,7,64,7,33,0,47-7,47-25,0-17-12-28-11-43s14-21,31-21c52,0,149,50,153,77,115,31,184,89,184,162,0,12-3,22-7,30,4,4,6,10,6,16,0,13-11,23-23,23-6,0-12-2-16-5,1,6,2,13,2,20,8,2,22,2,33-4,2-1,4-1,5-1,3,0,5,2,5,6s-3,9-10,13c6,14,12,47,12,70,0,97-115,163-242,163Z" fill="#a2b" opacity="0.6"/></svg>
