<svg xmlns="http://www.w3.org/2000/svg" width="800" height="800" fill="#c4d"><path d="M501.43,239.4c77.72,48.25,178.66,122.64,146.36,144.75-28.26,20.1-151.41-14.07-233.17-42.22-74.69-26.14-141.31-55.29-180.68-81.42-16.15-11.06-24.23-18.09-21.2-23.12,8.08-11.06,81.76,11.06,104.98-17.09,19.18-24.13-14.13-63.33-6.06-72.38,3.03-3.02,10.09-2.01,29.27,6.03,37.35,16.08,98.92,47.25,160.49,85.44ZM95.66,523.88c0-52.27,42.39-157.82,93.87-230.2,59.55,57.3,158.47,126.66,226.1,157.82,1.01,22.11,18.17,47.25,41.38,59.31,27.25,14.07,63.59,11.06,84.79-6.03,84.79,26.14,167.56,61.32,167.56,91.48,0,35.18-105.99,76.4-225.09,76.4s-296.76-44.23-358.33-91.48c-21.2-16.08-30.28-33.17-30.28-57.3Zm358.33-128.67c19.18,15.08,67.63,36.19,101.95,44.23,0,46.24-48.45,72.38-87.82,54.28-40.38-19.1-42.39-72.38-14.13-98.51Z"/><path d="M728.54,402.24c1.01-5.03,1.01-10.05,1.01-14.07,0-59.31-63.59-127.66-191.78-204.06-53.5-32.17-138.29-76.4-208.94-103.54-55.52-20.1-94.88-29.15-117.09-10.05-21.2,19.1-12.11,44.23,14.13,78.41,8.15,9.99,10.07,16.1,12.29,17.85-14.18,1.42-51.44-5.06-119.29-30.92-28.26-11.06-52.49-10.05-66.62,6.03-26.24,29.15,7.07,84.44,65.61,142.74-45.42,68.36-92.86,184.96-92.86,250.3,0,47.25,23.22,77.4,52.49,100.52,70.66,55.29,244.27,104.54,393.66,104.54s292.72-54.28,292.72-137.72c0-9.05-1.01-20.1-10.09-29.15,37.35-60.31,23.22-131.68-25.23-170.89Zm10.09,196.02c0,66.34-124.15,111.58-261.43,111.58s-317.96-47.25-383.57-98.51c-25.23-20.1-37.35-43.22-37.35-74.39,0-61.32,46.43-171.89,105.99-257.34-53.5-49.26-95.89-96.5-80.75-112.59,8.07-10.05,22.21-6.03,50.47,4.02,68.64,22.11,124.15,30.16,136.27,19.1,10.09-9.05,3.03-33.17-22.21-62.32-12.11-14.07-16.15-28.15-2.02-35.18,25.23-12.06,164.53,46.24,278.59,114.6,101.95,61.32,176.93,130.68,176.64,180.94-.13,22.57-13.77,34.55-27.34,39.24-25.01,8.66-43.37,11.83-40.3,19.94,1.45,3.82,25.84,3.28,49.94-4.61,15.74-5.15,23.19-11.37,26.28-17.08,46.54,24,49.74,95.53,15.64,146.47,13.12,8.04,15.14,18.09,15.14,26.14ZM243.68,165.27c.12-.09,.23-.17,.35-.26-.11,.09-.23,.17-.35,.26Zm419.65,332.46c13.62,6.64,22.28,16.89,19.35,22.9-2.93,6-16.34,5.49-29.96-1.16-13.62-6.64-22.28-16.89-19.35-22.9s16.34-5.49,29.96,1.16Z" opacity=".5"/><circle cx="492.85" cy="441.02" r="30" fill="#012"/></svg>